HIERARCHY
ROOT Hips
{
	OFFSET 0.000000 0.000000 0.000000
	CHANNELS 6 Xposition Yposition Zposition Xrotation Yrotation Zrotation
	JOINT LeftUpLeg_virtual
	{
		OFFSET 0.000000 0.000000 0.000000
		CHANNELS 3 Xrotation Yrotation Zrotation
		JOINT LeftUpLeg
		{
			OFFSET 10.205400 -3.823500 0.155100
			CHANNELS 3 Xrotation Yrotation Zrotation
			JOINT LeftLeg
			{
				OFFSET 0.708757 -12.982077 0.567790
				CHANNELS 3 Xrotation Yrotation Zrotation
				JOINT LeftFoot
				{
					OFFSET -0.708756 -10.717838 -2.184338
					CHANNELS 3 Xrotation Yrotation Zrotation
					JOINT LeftToeBase
					{
						OFFSET 0.108149 -7.191104 7.560241
						CHANNELS 3 Xrotation Yrotation Zrotation
						JOINT LeftToe_End
						{
							OFFSET 0.070230 0.081724 4.490308
							CHANNELS 3 Xrotation Yrotation Zrotation
							End Site
							{
								OFFSET 0 0 0
							}
						}
					}
				}
			}
		}
	}
	JOINT RightUpLeg_virtual
	{
		OFFSET 0.000000 0.000000 0.000000
		CHANNELS 3 Xrotation Yrotation Zrotation
		JOINT RightUpLeg
		{
			OFFSET -10.205400 -3.823500 0.005500
			CHANNELS 3 Xrotation Yrotation Zrotation
			JOINT RightLeg
			{
				OFFSET -0.708756 -12.982134 0.610632
				CHANNELS 3 Xrotation Yrotation Zrotation
				JOINT RightFoot
				{
					OFFSET 0.708754 -10.717769 -1.945823
					CHANNELS 3 Xrotation Yrotation Zrotation
					JOINT RightToeBase
					{
						OFFSET -0.108140 -7.191069 7.372968
						CHANNELS 3 Xrotation Yrotation Zrotation
						JOINT RightToe_End
						{
							OFFSET -0.070227 0.081735 4.479403
							CHANNELS 3 Xrotation Yrotation Zrotation
							End Site
							{
								OFFSET 0 0 0
							}
						}
					}
				}
			}
		}
	}
	JOINT Spine_virtual
	{
		OFFSET 0.000000 0.000000 0.000000
		CHANNELS 3 Xrotation Yrotation Zrotation
		JOINT Spine
		{
			OFFSET 0.000000 6.876099 0.125700
			CHANNELS 3 Xrotation Yrotation Zrotation
			JOINT Spine1
			{
				OFFSET 0.000000 5.730043 0.104720
				CHANNELS 3 Xrotation Yrotation Zrotation
				JOINT Spine1_split
				{
					OFFSET 0.000000 5.730043 0.104720
					CHANNELS 3 Xrotation Yrotation Zrotation
					JOINT Spine2
					{
						OFFSET 0.000000 5.730043 0.104720
						CHANNELS 3 Xrotation Yrotation Zrotation
						JOINT Neck_virtual
						{
							OFFSET 0.000000 0.000000 0.000000
							CHANNELS 3 Xrotation Yrotation Zrotation
							JOINT Neck
							{
								OFFSET 0.000000 10.314075 0.188496
								CHANNELS 3 Xrotation Yrotation Zrotation
								JOINT Head
								{
									OFFSET 0.000000 7.643700 -2.377400
									CHANNELS 3 Xrotation Yrotation Zrotation
									JOINT HeadTop_End
									{
										OFFSET 0.000000 43.788605 -13.619600
										CHANNELS 3 Xrotation Yrotation Zrotation
										End Site
										{
											OFFSET 0 0 0
										}
									}
								}
							}
						}
						JOINT LeftShoulder_virtual
						{
							OFFSET 0.000000 0.000000 0.000000
							CHANNELS 3 Xrotation Yrotation Zrotation
							JOINT LeftShoulder
							{
								OFFSET 2.196100 4.412489 0.087492
								CHANNELS 3 Xrotation Yrotation Zrotation
								JOINT LeftShoulder_split
								{
									OFFSET 2.196100 4.412489 0.087492
									CHANNELS 3 Xrotation Yrotation Zrotation
									JOINT LeftArm
									{
										OFFSET 8.771219 -2.981674 -0.026999
										CHANNELS 3 Xrotation Yrotation Zrotation
										JOINT LeftForeArm
										{
											OFFSET 8.512804 0.000000 -0.000000
											CHANNELS 3 Xrotation Yrotation Zrotation
											JOINT LeftHand
											{
												OFFSET 18.484802 0.000000 -0.000000
												CHANNELS 3 Xrotation Yrotation Zrotation
												End Site
												{
													OFFSET 0 0 0
												}
											}
										}
									}
								}
							}
						}
						JOINT RightShoulder_virtual
						{
							OFFSET 0.000000 0.000000 0.000000
							CHANNELS 3 Xrotation Yrotation Zrotation
							JOINT RightShoulder
							{
								OFFSET -2.196100 4.412496 0.070690
								CHANNELS 3 Xrotation Yrotation Zrotation
								JOINT RightShoulder_split
								{
									OFFSET -2.196100 4.412496 0.070690
									CHANNELS 3 Xrotation Yrotation Zrotation
									JOINT RightArm
									{
										OFFSET -8.771282 -2.981682 -0.094208
										CHANNELS 3 Xrotation Yrotation Zrotation
										JOINT RightForeArm
										{
											OFFSET -8.494598 0.000000 0.000000
											CHANNELS 3 Xrotation Yrotation Zrotation
											JOINT RightHand
											{
												OFFSET -18.483803 0.000000 0.000001
												CHANNELS 3 Xrotation Yrotation Zrotation
												End Site
												{
													OFFSET 0 0 0
												}
											}
										}
									}
								}
							}
						}
					}
				}
			}
		}
	}
}
MOTION
Frames: 9
Frame Time: 0.03333333
2.522292 26.541157 13.871201 0.000000 0.000000 0.000000 14.700507 -1.342302 -3.688554 -78.325911 22.925533 13.037919 121.852624 0.074877 0.084543 -7.485086 2.936181 -1.993161 -0.178290 -1.096914 0.204644 0.000000 0.000000 0.000000 9.718277 -8.676266 -1.780066 -27.782638 -7.970912 -0.654673 44.797121 10.896886 -2.607381 -45.017142 -6.237059 -7.340432 -14.866207 1.088118 -4.226039 0.000000 0.000000 0.000000 12.463009 -8.176368 -2.844796 8.681732 3.830808 3.032994 5.805648 -0.278584 -1.297994 0.438953 1.815990 -0.950762 0.000000 0.000000 0.000000 2.824287 0.076245 -1.954268 -0.448551 0.869748 -3.920239 -11.857508 11.816826 0.863820 0.000000 0.000000 0.000000 4.159227 -0.413386 -1.521109 -0.177114 -11.693827 -3.802537 1.291429 5.698456 -2.070855 9.460730 -9.268695 -49.608016 4.497595 -79.573944 4.971280 0.000000 0.000000 0.000000 3.884061 0.467628 -0.447547 2.743884 4.494603 13.779892 10.150001 0.466799 -3.931483 -0.736231 28.549508 24.864165 165.463231 72.728988 -168.239744 0.000000 0.000000 0.000000 
1.949846 26.625740 18.281431 0.000000 0.000000 0.000000 12.290084 -4.011368 -4.663027 -83.803204 22.564039 16.683784 109.085477 0.387402 -1.750277 -7.880115 1.785195 -5.861179 1.371440 -1.256915 1.651564 0.000000 0.000000 0.000000 8.933436 -10.378889 -2.697376 -19.042784 -7.066934 0.666904 52.461331 10.156349 -2.772453 -46.035151 -3.997961 -8.736320 -7.604995 1.572774 -4.053941 0.000000 0.000000 0.000000 12.239481 -6.780586 -4.177497 8.551467 4.585039 2.742581 5.767990 -0.424796 -1.487177 0.999267 2.603464 -1.159341 0.000000 0.000000 0.000000 1.973686 0.247354 -2.015178 -0.348416 0.509689 -3.930055 -12.034313 12.433025 1.843016 0.000000 0.000000 0.000000 3.927167 -0.126853 -1.498796 -0.159071 -8.828697 -4.067329 2.561171 6.813080 -2.667670 16.575594 -6.991038 -49.119613 1.179739 -78.499706 1.322283 0.000000 0.000000 0.000000 3.493017 0.491590 -0.685953 2.564968 3.722157 13.903822 8.448828 -2.440759 -3.134301 -3.577820 25.292339 28.507425 172.557544 71.072148 -175.522556 0.000000 0.000000 0.000000 
1.388273 26.639576 23.301704 0.000000 0.000000 0.000000 8.907219 -6.039141 -5.826742 -85.850601 19.759879 17.584337 93.539837 0.961387 -2.903040 -10.266661 1.429972 -9.161853 2.768173 -1.536881 1.933988 0.000000 0.000000 0.000000 7.110523 -8.991431 -4.385089 -7.955944 -5.551490 3.596432 60.167765 8.177042 -3.860718 -43.908021 -1.647229 -9.942904 -10.210954 3.097922 -5.268438 0.000000 0.000000 0.000000 11.198080 -5.434696 -5.612830 8.231059 6.074853 2.533896 5.625595 -0.181046 -1.444315 0.823981 2.874326 -0.340147 0.000000 0.000000 0.000000 1.650998 0.687181 -1.904743 -0.540306 -0.616418 -3.726269 -11.676936 10.836546 2.568470 0.000000 0.000000 0.000000 3.804378 0.449057 -1.359481 0.058183 -5.425217 -4.386551 3.579043 6.498361 -2.664665 22.580747 -3.517576 -49.735255 -4.405563 -77.952143 -4.650959 0.000000 0.000000 0.000000 3.309297 0.865886 -0.904954 2.330503 3.140716 14.977932 7.013033 -3.602200 -2.699314 -7.846565 18.578529 33.307219 -179.151163 71.741930 176.000888 0.000000 0.000000 0.000000 
1.029502 26.320383 28.271587 0.000000 0.000000 0.000000 4.739704 -6.521664 -6.684993 -83.105227 16.021264 15.527373 81.021084 1.970577 -3.390418 -13.823190 2.467106 -9.726692 3.708645 -1.863737 0.964332 0.000000 0.000000 0.000000 5.552549 -5.947491 -5.814038 2.401777 -3.558650 7.088728 66.325214 5.180000 -5.296486 -38.584497 0.182028 -11.150377 -24.273437 5.254374 -7.182437 0.000000 0.000000 0.000000 7.897824 -3.751574 -6.720733 7.746109 7.829002 2.168137 5.302463 0.383669 -1.311423 0.699667 2.280950 0.547405 0.000000 0.000000 0.000000 1.673786 1.241380 -1.736079 -0.690337 -1.976659 -3.579757 -10.660797 7.394759 2.929761 0.000000 0.000000 0.000000 3.583905 1.145941 -1.244630 0.456523 -2.621394 -4.861428 4.396676 4.272530 -3.050342 25.589425 -0.523061 -50.783317 -10.038236 -77.492601 -10.463792 0.000000 0.000000 0.000000 3.332851 1.365743 -1.186634 2.132656 3.040554 16.822624 5.581171 -2.614023 -2.532645 -10.029001 11.509636 36.821215 -166.207613 76.652782 163.074373 0.000000 0.000000 0.000000 
0.880361 25.810211 33.118141 0.000000 0.000000 0.000000 -0.102933 -6.032898 -6.626184 -75.486588 12.474264 11.551899 73.994124 3.058535 -3.922970 -18.414137 4.167421 -6.970666 3.642037 -1.997351 -0.698226 0.000000 0.000000 0.000000 2.907240 -2.774111 -6.597929 6.048954 -3.342180 8.211377 76.698400 4.043430 -6.300231 -23.872665 0.746626 -9.830737 -32.860829 6.346498 -7.930655 0.000000 0.000000 0.000000 2.647765 -1.556866 -6.755563 7.256080 9.156785 1.325457 4.877348 1.080361 -1.250090 0.187374 1.497384 1.020917 0.000000 0.000000 0.000000 1.645607 1.631808 -1.607648 -0.459067 -3.201907 -3.600409 -8.509870 2.994640 2.973139 0.000000 0.000000 0.000000 3.184982 1.667628 -1.256365 0.953287 -1.573090 -5.892783 4.893660 1.306361 -3.857947 24.236860 1.066992 -51.529256 -11.889892 -75.480584 -12.223251 0.000000 0.000000 0.000000 3.464891 1.781667 -1.490988 1.866434 3.780548 19.005964 4.505624 0.233064 -1.886293 -8.856401 7.627387 38.669382 -97.113412 84.533918 94.302264 0.000000 0.000000 0.000000 
0.901096 25.414021 37.167664 0.000000 0.000000 0.000000 -5.771805 -5.050011 -5.435876 -62.417861 9.210349 6.708099 71.664291 3.426231 -4.856986 -23.148922 5.315117 -1.750181 0.978685 -1.764004 -2.230617 0.000000 0.000000 0.000000 -3.026975 0.363968 -6.464292 -0.745954 -6.073817 5.900539 91.799682 4.922220 -6.546886 -0.571279 0.649833 -6.502221 -23.591345 5.114132 -6.912123 0.000000 0.000000 0.000000 -4.165958 -0.308984 -5.410834 6.840717 9.427471 -0.221795 4.444744 1.534524 -1.309762 -0.549664 1.068851 0.896867 0.000000 0.000000 0.000000 1.291988 1.673819 -1.534046 0.317192 -3.863227 -3.747394 -4.524828 -0.802890 3.037695 0.000000 0.000000 0.000000 2.644005 1.765971 -1.462722 1.354532 -2.971363 -7.600829 4.607522 -1.493747 -5.206386 18.437252 1.000018 -51.236046 -9.323953 -70.032996 -9.186136 0.000000 0.000000 0.000000 3.574320 1.895678 -1.793129 1.438500 5.476960 20.935367 3.674612 3.055862 -1.424588 -4.285965 10.037777 38.658232 -20.019375 71.287975 17.797374 0.000000 0.000000 0.000000 
0.982090 25.374653 40.739197 0.000000 0.000000 0.000000 -12.454368 -3.500822 -3.572599 -44.981860 6.446015 2.280489 70.242089 2.682116 -6.063518 -27.126533 5.545922 2.607165 -2.603942 -1.097155 -3.079128 0.000000 0.000000 0.000000 -10.469249 4.023804 -4.828718 -13.832857 -9.716085 1.355336 103.568214 4.784387 -5.388276 17.748018 0.370631 -4.855928 -8.309374 3.242088 -5.160122 0.000000 0.000000 0.000000 -11.874755 0.379374 -3.530773 6.505091 8.383016 -2.363262 4.076900 1.434801 -1.428090 -0.186452 0.206561 -0.224213 0.000000 0.000000 0.000000 0.589617 1.238919 -1.474708 1.255351 -3.804375 -3.875347 1.409941 -3.080593 3.423179 0.000000 0.000000 0.000000 2.083597 1.312698 -1.708390 1.432047 -7.036499 -9.969776 3.580429 -2.769969 -6.245016 9.582340 -0.783298 -49.675983 -5.814788 -60.971138 -5.143725 0.000000 0.000000 0.000000 3.560269 1.568025 -2.029244 0.762348 7.812922 21.987311 2.082399 4.017342 -1.015623 2.744894 19.105760 35.954744 -9.286320 52.516785 7.623971 0.000000 0.000000 0.000000 
1.089577 26.045853 44.108643 0.000000 0.000000 0.000000 -19.607632 -3.252585 -2.016417 -23.641788 4.503562 -0.301882 65.848884 0.936129 -7.579164 -29.511113 5.085009 4.200537 -4.727229 -0.201485 -3.237854 0.000000 0.000000 0.000000 -17.445927 6.947372 -2.408300 -25.993079 -12.110142 -1.831738 108.624774 2.383398 -3.064016 24.209703 -0.357547 -4.897197 -1.086432 2.032489 -4.742263 0.000000 0.000000 0.000000 -19.126253 -0.165728 -1.841709 5.973876 5.966464 -4.533837 3.868726 0.711212 -1.439035 0.332500 -0.890080 -1.278207 0.000000 0.000000 0.000000 -0.371838 0.298391 -1.300442 2.132987 -3.226734 -3.550769 9.017387 -3.347933 4.134494 0.000000 0.000000 0.000000 1.690901 0.381254 -1.756968 1.037915 -13.184163 -12.778778 2.055390 -2.081404 -6.978406 -0.056813 -3.385443 -46.943723 -3.698810 -49.879587 -2.570424 0.000000 0.000000 0.000000 3.414514 0.787704 -2.004755 -0.107348 10.315945 21.714124 0.417880 4.017939 -1.461083 9.338175 31.250725 30.795711 -5.657105 39.710621 4.241982 0.000000 0.000000 0.000000 
1.080852 27.540985 47.398827 0.000000 0.000000 0.000000 -26.441564 -4.153613 -1.555089 -0.499254 4.029353 -0.746302 56.714664 0.024305 -9.509667 -31.011948 4.556311 4.840466 -4.611362 0.504159 -2.915201 0.000000 0.000000 0.000000 -24.157462 7.761923 -0.305690 -35.877508 -12.583507 -2.531544 108.804907 -1.426841 -0.479512 25.240146 -0.584804 -3.714524 3.552575 1.285550 -5.364934 0.000000 0.000000 0.000000 -25.612899 -1.574986 -1.098708 4.805027 2.476668 -6.009710 3.774313 -0.501458 -1.201862 1.033186 -1.959672 -1.150811 0.000000 0.000000 0.000000 -1.243942 -0.955664 -0.953948 3.194250 -2.121504 -2.490254 17.296978 -1.610897 4.614994 0.000000 0.000000 0.000000 1.466057 -0.844274 -1.492488 0.208819 -20.101631 -15.366797 0.443673 -0.014706 -7.181425 -7.714286 -6.076590 -43.042718 -2.917234 -40.426537 -1.513279 0.000000 0.000000 0.000000 3.028430 -0.350182 -1.688959 -0.866062 12.439477 19.724575 -0.426231 3.337054 -2.518033 12.221950 43.440696 25.263562 -4.353806 37.280539 2.790192 0.000000 0.000000 0.000000 
